<?xml version="1.0" standalone="no"?>
<!DOCTYPE svg PUBLIC "-//W3C//DTD SVG 20010904//EN"
 "http://www.w3.org/TR/2001/REC-SVG-20010904/DTD/svg10.dtd">
<svg version="1.0" xmlns="http://www.w3.org/2000/svg"
 width="100.000000pt" height="100.000000pt" viewBox="0 0 100.000000 100.000000"
 preserveAspectRatio="xMidYMid meet">
<metadata>
Created by potrace 1.11, written by Peter Selinger 2001-2013
</metadata>
<g transform="translate(0.000000,100.000000) scale(0.100000,-0.100000)"
fill="#000000" stroke="none">
<path d="M130 454 l0 -296 163 3 c150 4 166 6 211 29 58 30 86 75 86 138 0 24
-7 56 -15 73 -18 33 -69 69 -100 69 -15 1 -12 4 11 14 71 31 100 140 52 201
-42 53 -87 65 -255 65 l-153 0 0 -296z m289 182 c31 -28 28 -79 -5 -105 -21
-17 -41 -21 -95 -21 l-69 0 0 68 c0 38 3 72 8 76 4 4 37 6 74 4 47 -2 73 -9
87 -22z m10 -228 c21 -13 41 -49 41 -74 0 -9 -13 -29 -29 -45 -28 -27 -34 -29
-110 -29 l-81 0 0 78 c0 43 3 82 8 86 10 12 148 -1 171 -16z"/>
<path d="M843 603 c-12 -2 -34 -18 -48 -34 l-25 -31 0 31 0 31 -60 0 -60 0 0
-220 0 -220 59 0 60 0 3 151 c3 145 4 152 27 170 15 12 39 19 67 19 l44 0 0
49 c0 46 -12 65 -38 60 -4 -1 -17 -4 -29 -6z"/>
</g>
</svg>
